<?xml version="1.0" encoding="utf-8"?>
<!-- Generator: Adobe Illustrator 21.1.0, SVG Export Plug-In . SVG Version: 6.00 Build 0)  -->
<svg version="1.1" id="圖層_1" xmlns="http://www.w3.org/2000/svg" xmlns:xlink="http://www.w3.org/1999/xlink" x="0px" y="0px"
	 viewBox="0 0 18 23" style="enable-background:new 0 0 18 23;" xml:space="preserve">
<style type="text/css">
	.st0{fill:#FFFFFF;}
</style>
<g>
	<g>
		<path class="st0" d="M15.5,3H12c-0.2-1.5-1.4-2.7-3-2.7C7.5,0.4,6.2,1.5,6,3H2.5C1.1,3,0,4.2,0,5.6v0.1c0,1.1,0.7,2,1.6,2.4v12
			c0,1.4,1.1,2.5,2.5,2.5h9.7c1.4,0,2.5-1.1,2.5-2.5v-12C17.3,7.7,18,6.8,18,5.7V5.6C18,4.2,16.9,3,15.5,3z M9,1.6
			c0.9,0,1.6,0.6,1.8,1.5H7.2C7.4,2.2,8.1,1.6,9,1.6z M15.2,20.1c0,0.7-0.6,1.3-1.3,1.3H4.1c-0.7,0-1.3-0.6-1.3-1.3V8.3h12.4V20.1z
			 M16.8,5.7c0,0.7-0.6,1.3-1.3,1.3H2.5C1.8,7,1.2,6.4,1.2,5.7V5.6c0-0.7,0.6-1.3,1.3-1.3h12.9c0.7,0,1.3,0.6,1.3,1.3L16.8,5.7
			L16.8,5.7z"/>
		<path class="st0" d="M5.8,19.9c0.3,0,0.6-0.3,0.6-0.6v-6.8c0-0.3-0.3-0.6-0.6-0.6s-0.6,0.3-0.6,0.6v6.8
			C5.2,19.6,5.4,19.9,5.8,19.9z"/>
		<path class="st0" d="M9,19.9c0.3,0,0.6-0.3,0.6-0.6v-6.8c0-0.3-0.3-0.6-0.6-0.6c-0.3,0-0.6,0.3-0.6,0.6v6.8
			C8.4,19.6,8.7,19.9,9,19.9z"/>
		<path class="st0" d="M12.2,19.9c0.3,0,0.6-0.3,0.6-0.6v-6.8c0-0.3-0.3-0.6-0.6-0.6c-0.3,0-0.6,0.3-0.6,0.6v6.8
			C11.6,19.6,11.9,19.9,12.2,19.9z"/>
	</g>
</g>
</svg>
