<?xml version="1.0" encoding="utf-8"?>
<!-- Generator: Adobe Illustrator 21.1.0, SVG Export Plug-In . SVG Version: 6.00 Build 0)  -->
<svg version="1.1" id="圖層_1" xmlns="http://www.w3.org/2000/svg" xmlns:xlink="http://www.w3.org/1999/xlink" x="0px" y="0px"
	 viewBox="0 0 16 15" style="enable-background:new 0 0 16 15;" xml:space="preserve">
<style type="text/css">
	.st0{fill:#272C33;}
</style>
<g>
	<path class="st0" d="M1,0l5,6l4.9-6H1z"/>
	<path class="st0" d="M5.9,9L1,15h10L5.9,9z M3.1,14l2.8-3.4l3,3.4H3.1z"/>
	<path class="st0" d="M11,7v1h-1V7H11z"/>
	<path class="st0" d="M13,7v1h-1V7H13z"/>
	<path class="st0" d="M9,7v1H8V7H9z"/>
	<path class="st0" d="M7,7v1H6V7H7z"/>
	<path class="st0" d="M5,7v1H4V7H5z"/>
	<path class="st0" d="M3,7v1H2V7H3z"/>
	<path class="st0" d="M1,7v1H0V7H1z"/>
	<path class="st0" d="M15,7.5L15,7.5c0,1.3-0.7,2.6-1.9,3.6L12,10v3h3l-1.2-1.2c1.4-1.2,2.2-2.7,2.2-4.3l0,0c0-1.9-1-3.6-2.9-4.9
		l-0.6,0.8C14.1,4.5,15,5.9,15,7.5z"/>
</g>
</svg>
