<?xml version="1.0" encoding="utf-8"?>
<!-- Generator: Adobe Illustrator 21.1.0, SVG Export Plug-In . SVG Version: 6.00 Build 0)  -->
<svg version="1.1" id="圖層_1" xmlns="http://www.w3.org/2000/svg" xmlns:xlink="http://www.w3.org/1999/xlink" x="0px" y="0px"
	 viewBox="0 0 15 16" style="enable-background:new 0 0 15 16;" xml:space="preserve">
<style type="text/css">
	.st0{fill:#272C33;}
</style>
<g>
	<path class="st0" d="M0,15l6-5L0,5.1V15z"/>
	<path class="st0" d="M9,10.1l6,4.9V5L9,10.1z M14,12.9l-3.4-2.8l3.4-3V12.9z"/>
	<path class="st0" d="M7,5h1v1H7V5z"/>
	<path class="st0" d="M7,3h1v1H7V3z"/>
	<path class="st0" d="M7,7h1v1H7V7z"/>
	<path class="st0" d="M7,9h1v1H7V9z"/>
	<path class="st0" d="M7,11h1v1H7V11z"/>
	<path class="st0" d="M7,13h1v1H7V13z"/>
	<path class="st0" d="M7,15h1v1H7V15z"/>
	<path class="st0" d="M7.5,1L7.5,1c1.3,0,2.6,0.7,3.6,1.9L10,4h3V1l-1.2,1.2C10.6,0.8,9.1,0,7.5,0l0,0C5.6,0,3.9,1,2.6,2.9l0.8,0.6
		C4.5,1.9,5.9,1,7.5,1z"/>
</g>
</svg>
