<?xml version="1.0" encoding="utf-8"?>
<!-- Generator: Adobe Illustrator 21.1.0, SVG Export Plug-In . SVG Version: 6.00 Build 0)  -->
<svg version="1.1" id="圖層_1" xmlns="http://www.w3.org/2000/svg" xmlns:xlink="http://www.w3.org/1999/xlink" x="0px" y="0px"
	 viewBox="0 0 29 16" style="enable-background:new 0 0 29 16;" xml:space="preserve">
<style type="text/css">
	.st0{fill:#272C33;}
</style>
<g>
	<g>
		<path class="st0" d="M7.7,4.9H5.3v2.5h2.5C8.5,7.4,9,6.9,9,6.2S8.5,4.9,7.7,4.9z"/>
		<path class="st0" d="M15.1,4.9h-2.5v6.2h2.5c0.7,0,1.2-0.5,1.2-1.2V6.2C16.3,5.4,15.9,4.9,15.1,4.9z"/>
		<path class="st0" d="M25,0H4C1.9,0,0.3,1.6,0.3,3.7v8.6C0.3,14.4,1.9,16,4,16h21c2.1,0,3.7-1.6,3.7-3.7V3.7C28.7,1.6,27.1,0,25,0z
			 M7.7,8.6H5.3v3.7H4V6.2V3.7h3.7c1.4,0,2.5,1.1,2.5,2.5C10.2,7.5,9.1,8.6,7.7,8.6z M17.6,9.8c0,1.4-1.1,2.5-2.5,2.5h-3.7V3.7h3.7
			c1.4,0,2.5,1.1,2.5,2.5V9.8z M25,4.9h-5v2.5h3.7v1.2H20v3.7h-1.2V3.7H25V4.9z"/>
	</g>
</g>
</svg>
