<?xml version="1.0" encoding="utf-8"?>
<!-- Generator: Adobe Illustrator 21.1.0, SVG Export Plug-In . SVG Version: 6.00 Build 0)  -->
<svg version="1.1" id="圖層_1" xmlns="http://www.w3.org/2000/svg" xmlns:xlink="http://www.w3.org/1999/xlink" x="0px" y="0px"
	 viewBox="0 0 18 18" style="enable-background:new 0 0 18 18;" xml:space="preserve">
<style type="text/css">
	.st0{fill:#272C33;}
</style>
<g>
	<path class="st0" d="M17.8,5c-0.2-0.4-0.3-0.7-0.6-0.9l-3.3-3.3c-0.2-0.2-0.5-0.4-0.9-0.6C12.7,0.1,12.3,0,12,0H1.1
		C0.8,0,0.5,0.1,0.3,0.3S0,0.8,0,1.1v15.8c0,0.3,0.1,0.6,0.3,0.8C0.5,17.9,0.8,18,1.1,18h15.8c0.3,0,0.6-0.1,0.8-0.3
		c0.2-0.2,0.3-0.5,0.3-0.8V6C18,5.7,17.9,5.3,17.8,5z M7.5,1.9c0-0.1,0-0.2,0.1-0.3s0.2-0.1,0.3-0.1h2.3c0.1,0,0.2,0,0.3,0.1
		s0.1,0.2,0.1,0.3v3.8c0,0.1,0,0.2-0.1,0.3c-0.2,0-0.3,0-0.4,0H7.9C7.8,6,7.7,6,7.6,5.9S7.5,5.7,7.5,5.6V1.9L7.5,1.9z M13.5,16.5h-9
		V12h9V16.5z M16.5,16.5H15l0,0v-4.9c0-0.3-0.1-0.6-0.3-0.8s-0.5-0.3-0.8-0.3H4.1c-0.3,0-0.6,0.1-0.8,0.3S3,11.3,3,11.6v4.9H1.5v-15
		H3v4.9C3,6.7,3.1,7,3.3,7.2s0.5,0.3,0.8,0.3h6.8c0.3,0,0.6-0.1,0.8-0.3C11.9,7,12,6.7,12,6.4V1.5c0.1,0,0.3,0,0.5,0.1
		s0.3,0.2,0.4,0.2l3.3,3.3c0.1,0.1,0.2,0.2,0.2,0.4c0.1,0.2,0.1,0.3,0.1,0.5V16.5L16.5,16.5z"/>
</g>
</svg>
