<?xml version="1.0" encoding="utf-8"?>
<!-- Generator: Adobe Illustrator 21.1.0, SVG Export Plug-In . SVG Version: 6.00 Build 0)  -->
<svg version="1.1" id="圖層_1" xmlns="http://www.w3.org/2000/svg" xmlns:xlink="http://www.w3.org/1999/xlink" x="0px" y="0px"
	 viewBox="0 0 20 20" style="enable-background:new 0 0 20 20;" xml:space="preserve">
<style type="text/css">
	.st0{opacity:0;fill:#272C33;}
	.st1{fill:#FFFFFF;}
</style>
<g>
	<rect class="st0" width="20" height="20"/>
	<g>
		<path class="st1" d="M10,3c-3.9,0-7,3.1-7,7s3.1,7,7,7s7-3.1,7-7S13.9,3,10,3z M11.2,5C11.2,5,11.2,5,11.2,5C11.6,5,12,5.2,12,5.6
			c0.2,0.7-0.6,1.4-1.3,1.1C9.9,6.4,10.3,5,11.2,5z M10.8,8.1c0.5,0,0.6,0.6,0.5,1.2c-0.3,1.5-0.8,2.9-1.1,4.3
			c0.1,0.6,0.9-0.1,1.2-0.3c0.3-0.2,0.3,0.1,0.4,0.3c-0.7,0.5-1.3,0.9-2.1,1.3c-0.7,0.4-1.3-0.2-1.1-1c0.3-1.4,0.7-2.7,1-4.1
			c0.1-0.7-0.9,0-1.2,0.2C8.2,10.4,8.1,10.1,8,9.9c0.8-0.6,1.6-1.3,2.4-1.7C10.5,8.1,10.7,8.1,10.8,8.1z"/>
	</g>
</g>
</svg>
