<?xml version="1.0" encoding="utf-8"?>
<!-- Generator: Adobe Illustrator 21.1.0, SVG Export Plug-In . SVG Version: 6.00 Build 0)  -->
<svg version="1.1" id="圖層_1" xmlns="http://www.w3.org/2000/svg" xmlns:xlink="http://www.w3.org/1999/xlink" x="0px" y="0px"
	 viewBox="0 0 300 24" style="enable-background:new 0 0 300 24;" xml:space="preserve">
<g>
	<path d="M23.3,17.9h-8.5L13,23H9L17.3,1h3.4L29.1,23h-4L23.3,17.9z M15.8,14.8h6.4L19,5.7L15.8,14.8z"/>
	<path d="M31.6,23V1h6.5c1.9,0,3.7,0.4,5.2,1.3C44.8,3.1,46,4.4,46.8,6s1.2,3.4,1.2,5.5v1.1c0,2.1-0.4,3.9-1.2,5.5
		c-0.8,1.6-2,2.8-3.6,3.7C41.7,22.6,39.9,23,38,23H31.6z M35.4,4.1V20h2.5c2,0,3.6-0.6,4.6-1.9s1.6-3.1,1.6-5.4v-1.2
		c0-2.4-0.5-4.2-1.6-5.5c-1-1.3-2.5-1.9-4.5-1.9H35.4z"/>
	<path d="M51.9,23V1h6.5c1.9,0,3.7,0.4,5.2,1.3c1.5,0.9,2.7,2.1,3.5,3.7s1.2,3.4,1.2,5.5v1.1c0,2.1-0.4,3.9-1.2,5.5
		c-0.8,1.6-2,2.8-3.6,3.7C62,22.6,60.2,23,58.2,23H51.9z M55.7,4.1V20h2.5c2,0,3.6-0.6,4.6-1.9s1.6-3.1,1.6-5.4v-1.2
		C64.5,9,64,7.2,62.9,6c-1-1.3-2.5-1.9-4.5-1.9H55.7z"/>
	<path d="M97.4,23h-3.8v-9.8h-9.9V23h-3.8V1h3.8v9.2h9.9V1h3.8V23z"/>
	<path d="M114.8,13.2h-9.1V20h10.6V23h-14.4V1h14.3v3.1h-10.5v6.1h9.1V13.2z"/>
	<path d="M131.8,17.9h-8.5l-1.8,5.1h-4L125.8,1h3.4l8.3,22.1h-4L131.8,17.9z M124.3,14.8h6.4l-3.2-9.1L124.3,14.8z"/>
	<path d="M140.1,23V1h6.5c1.9,0,3.7,0.4,5.2,1.3c1.5,0.9,2.7,2.1,3.5,3.7c0.8,1.6,1.2,3.4,1.2,5.5v1.1c0,2.1-0.4,3.9-1.2,5.5
		c-0.8,1.6-2,2.8-3.6,3.7c-1.5,0.9-3.3,1.3-5.3,1.3H140.1z M143.9,4.1V20h2.5c2,0,3.6-0.6,4.6-1.9c1.1-1.3,1.6-3.1,1.6-5.4v-1.2
		c0-2.4-0.5-4.2-1.6-5.5c-1-1.3-2.5-1.9-4.5-1.9H143.9z"/>
	<path d="M164.4,23h-3.8V1h3.8V23z"/>
	<path d="M186.6,23h-3.8l-9.8-15.6V23h-3.8V1h3.8l9.9,15.7V1h3.8V23z"/>
	<path d="M208,20.2c-0.8,1-1.9,1.8-3.3,2.4c-1.4,0.5-3,0.8-4.8,0.8c-1.8,0-3.5-0.4-4.9-1.3s-2.5-2-3.3-3.6c-0.8-1.6-1.2-3.4-1.2-5.5
		v-1.7c0-3.3,0.8-5.9,2.4-7.8c1.6-1.9,3.8-2.8,6.7-2.8c2.5,0,4.4,0.6,5.8,1.8c1.4,1.2,2.3,3,2.6,5.2h-3.8c-0.4-2.7-2-4-4.6-4
		c-1.7,0-3,0.6-3.9,1.9c-0.9,1.2-1.4,3-1.4,5.4v1.7c0,2.4,0.5,4.2,1.5,5.5c1,1.3,2.4,2,4.2,2c2,0,3.4-0.4,4.2-1.3v-4.3h-4.5v-2.9
		h8.4V20.2z"/>
	<path d="M235,4.1h-6.9v19h-3.8v-19h-6.8V1H235V4.1z"/>
	<path d="M250.8,13.2h-9.1V20h10.6V23h-14.4V1h14.3v3.1h-10.5v6.1h9.1V13.2z"/>
	<path d="M263,8.9l4.6-8h4.4l-6.7,10.9l6.8,11.1h-4.5l-4.7-8.1l-4.8,8.1h-4.5l6.8-11.1L254,1h4.4L263,8.9z"/>
	<path d="M291,4.1h-6.9v19h-3.8v-19h-6.8V1H291V4.1z"/>
</g>
</svg>
