<?xml version="1.0" encoding="utf-8"?>
<!-- Generator: Adobe Illustrator 21.1.0, SVG Export Plug-In . SVG Version: 6.00 Build 0)  -->
<svg version="1.1" id="圖層_1" xmlns="http://www.w3.org/2000/svg" xmlns:xlink="http://www.w3.org/1999/xlink" x="0px" y="0px"
	 viewBox="0 0 24 24" style="enable-background:new 0 0 24 24;" xml:space="preserve">
<style type="text/css">
	.st0{fill:#DDDFE1;}
</style>
<g>
	<path class="st0" d="M23.6,2.5H0.4C0.2,2.5,0,2.7,0,2.9v18.2c0,0.2,0.2,0.4,0.4,0.4h23.2c0.2,0,0.4-0.2,0.4-0.4V2.9
		C24,2.7,23.8,2.5,23.6,2.5z M21.7,18.4L16.5,13c-0.1-0.1-0.2-0.1-0.2,0l-3.6,3.2L8,10.5c0,0-0.1-0.1-0.1-0.1c0,0-0.1,0-0.1,0.1
		l-5.5,7.4v-13h19.4L21.7,18.4L21.7,18.4z"/>
	<path class="st0" d="M16,10.3c1,0,1.9-0.8,1.9-1.9c0-1-0.8-1.9-1.9-1.9c-1,0-1.9,0.8-1.9,1.9C14.1,9.5,14.9,10.3,16,10.3z"/>
</g>
</svg>
