<?xml version="1.0" encoding="utf-8"?>
<!-- Generator: Adobe Illustrator 21.1.0, SVG Export Plug-In . SVG Version: 6.00 Build 0)  -->
<svg version="1.1" id="圖層_1" xmlns="http://www.w3.org/2000/svg" xmlns:xlink="http://www.w3.org/1999/xlink" x="0px" y="0px"
	 viewBox="0 0 24 24" style="enable-background:new 0 0 24 24;" xml:space="preserve">
<style type="text/css">
	.st0{fill:#DDDFE1;}
</style>
<g>
	<path class="st0" d="M23.7,4.7l-4.4-4.4C19.1,0.1,18.9,0,18.6,0c-0.3,0-0.5,0.1-0.7,0.3l0,0l1.3,1.3c0.2,0.2,0.2,0.4,0,0.6
		c-0.1,0.1-0.2,0.1-0.3,0.1c-0.1,0-0.2,0-0.3-0.1l-1.3-1.3L16.2,2l1.3,1.3c0.2,0.2,0.2,0.4,0,0.6C17.4,3.9,17.3,4,17.2,4
		c-0.1,0-0.2,0-0.3-0.1l-1.3-1.3l-1.1,1.1l2.4,2.4c0.2,0.2,0.2,0.4,0,0.6c-0.1,0.1-0.2,0.1-0.3,0.1c-0.1,0-0.2,0-0.3-0.1L14,4.3
		l-1.1,1.1l5.7,5.8L23.7,6C24.1,5.7,24.1,5.1,23.7,4.7z"/>
	<path class="st0" d="M4.5,13.8l2.4,2.4c0.2,0.2,0.2,0.4,0,0.6c-0.1,0.1-0.2,0.1-0.3,0.1c-0.1,0-0.2,0-0.3-0.1l-2.4-2.4l-1.1,1.1
		L4,16.7c0.2,0.2,0.2,0.4,0,0.6c-0.1,0.1-0.2,0.1-0.3,0.1c-0.1,0-0.2,0-0.3-0.1L2.2,16l-1.3,1.3l1.3,1.3c0.2,0.2,0.2,0.4,0,0.6
		c-0.1,0.1-0.2,0.1-0.3,0.1c-0.1,0-0.2,0-0.3-0.1l-1.3-1.3l0,0C0.1,18.1,0,18.4,0,18.6c0,0.3,0.1,0.5,0.3,0.7l4.4,4.4
		c0.4,0.4,1,0.4,1.3,0l5.1-5.1l-5.8-5.8L4.5,13.8z"/>
	<path class="st0" d="M10.4,4.6c-0.1-0.1-0.2-0.2-0.3-0.2l-7-2.4C2.8,2,2.5,2,2.2,2.2C2,2.5,1.9,2.8,2,3.1l2.4,7
		c0,0.1,0.1,0.2,0.2,0.3l11.2,11.2c0.8,0.8,1.8,1.2,2.9,1.2c1.1,0,2.1-0.4,2.9-1.2c1.6-1.6,1.6-4.2,0-5.7L10.4,4.6z M10,6.5l9.7,9.7
		L18.8,17L9.1,7.4L10,6.5z M4.6,5.5l0.9-0.9l3.1,1L5.6,8.6L4.6,5.5z M16.2,19.6L6.5,10l0.9-0.9l9.7,9.7L16.2,19.6z M20.5,20.5
		c-0.8,0.8-2.2,0.9-3.1,0.3l3.4-3.4C21.4,18.3,21.3,19.6,20.5,20.5z"/>
</g>
</svg>
