<?xml version="1.0" encoding="utf-8"?>
<!-- Generator: Adobe Illustrator 21.1.0, SVG Export Plug-In . SVG Version: 6.00 Build 0)  -->
<svg version="1.1" id="圖層_1" xmlns="http://www.w3.org/2000/svg" xmlns:xlink="http://www.w3.org/1999/xlink" x="0px" y="0px"
	 viewBox="0 0 24 24" style="enable-background:new 0 0 24 24;" xml:space="preserve">
<style type="text/css">
	.st0{fill:#DDDFE1;}
</style>
<g>
	<g>
		<path class="st0" d="M24,1.2c0-0.4-0.3-0.7-0.8-0.7H0.8C0.3,0.4,0,0.8,0,1.2v4.2c0,0.4,0.3,0.8,0.8,0.8h1.7C2.7,6.1,2.9,6,3,5.8
			l1.3-1.6h5.4v18.6c0,0.4,0.3,0.8,0.8,0.8h3c0.4,0,0.8-0.3,0.8-0.8V4.2h5.4L21,5.8c0.1,0.2,0.4,0.3,0.6,0.3h1.7
			c0.2,0,0.4-0.1,0.5-0.2C23.9,5.7,24,5.5,24,5.3L24,1.2z"/>
	</g>
</g>
</svg>
